<svg xmlns="http://www.w3.org/2000/svg" xmlns:xlink="http://www.w3.org/1999/xlink" width="500" zoomAndPan="magnify" viewBox="0 0 375 374.999991" height="500" preserveAspectRatio="xMidYMid meet" version="1.0"><defs><clipPath id="353b3f4379"><path d="M 1.109375 0.363281 L 62.953125 0.363281 L 62.953125 230.832031 L 1.109375 230.832031 Z M 1.109375 0.363281 " clip-rule="nonzero"/></clipPath><clipPath id="9fa1dcd778"><path d="M 47.492188 0.363281 L 1.109375 0.363281 L 16.570312 230.828125 L 62.953125 230.828125 Z M 47.492188 0.363281 " clip-rule="nonzero"/></clipPath><clipPath id="6f02e29881"><path d="M 0.109375 0.363281 L 61.953125 0.363281 L 61.953125 230.832031 L 0.109375 230.832031 Z M 0.109375 0.363281 " clip-rule="nonzero"/></clipPath><clipPath id="2a9ea4c196"><path d="M 46.492188 0.363281 L 0.109375 0.363281 L 15.570312 230.828125 L 61.953125 230.828125 Z M 46.492188 0.363281 " clip-rule="nonzero"/></clipPath><clipPath id="23edfcb1a6"><rect x="0" width="62" y="0" height="231"/></clipPath><clipPath id="990f35c5a9"><path d="M 55.90625 0.363281 L 117.75 0.363281 L 117.75 185.65625 L 55.90625 185.65625 Z M 55.90625 0.363281 " clip-rule="nonzero"/></clipPath><clipPath id="f37f8864ba"><path d="M 102.289062 0.363281 L 55.90625 0.363281 L 71.367188 185.566406 L 117.75 185.566406 Z M 102.289062 0.363281 " clip-rule="nonzero"/></clipPath><clipPath id="7cf79a8a55"><path d="M 0.90625 0.363281 L 62.75 0.363281 L 62.75 185.601562 L 0.90625 185.601562 Z M 0.90625 0.363281 " clip-rule="nonzero"/></clipPath><clipPath id="c9fe4155eb"><path d="M 47.289062 0.363281 L 0.90625 0.363281 L 16.367188 185.566406 L 62.75 185.566406 Z M 47.289062 0.363281 " clip-rule="nonzero"/></clipPath><clipPath id="135b49d511"><rect x="0" width="63" y="0" height="186"/></clipPath><clipPath id="94e1b0887a"><path d="M 113.957031 0.363281 L 175.800781 0.363281 L 175.800781 258.859375 L 113.957031 258.859375 Z M 113.957031 0.363281 " clip-rule="nonzero"/></clipPath><clipPath id="715310a9f7"><path d="M 160.339844 0.363281 L 113.957031 0.363281 L 129.417969 258.636719 L 175.800781 258.636719 Z M 160.339844 0.363281 " clip-rule="nonzero"/></clipPath><clipPath id="711f4784f0"><path d="M 0.957031 0.363281 L 62.800781 0.363281 L 62.800781 258.800781 L 0.957031 258.800781 Z M 0.957031 0.363281 " clip-rule="nonzero"/></clipPath><clipPath id="53d55598d4"><path d="M 47.339844 0.363281 L 0.957031 0.363281 L 16.417969 258.636719 L 62.800781 258.636719 Z M 47.339844 0.363281 " clip-rule="nonzero"/></clipPath><clipPath id="1a50cc8515"><rect x="0" width="63" y="0" height="259"/></clipPath><clipPath id="21ba38b2d5"><path d="M 172.285156 66.578125 L 234.128906 66.578125 L 234.128906 258.636719 L 172.285156 258.636719 Z M 172.285156 66.578125 " clip-rule="nonzero"/></clipPath><clipPath id="f247dcf171"><path d="M 218.667969 66.578125 L 172.285156 66.578125 L 187.746094 258.636719 L 234.128906 258.636719 Z M 218.667969 66.578125 " clip-rule="nonzero"/></clipPath><clipPath id="cb3c85b39a"><path d="M 0.285156 0.578125 L 62.128906 0.578125 L 62.128906 192.636719 L 0.285156 192.636719 Z M 0.285156 0.578125 " clip-rule="nonzero"/></clipPath><clipPath id="8ec8552cf3"><path d="M 46.667969 0.578125 L 0.285156 0.578125 L 15.746094 192.636719 L 62.128906 192.636719 Z M 46.667969 0.578125 " clip-rule="nonzero"/></clipPath><clipPath id="293c9ffb53"><rect x="0" width="63" y="0" height="193"/></clipPath><clipPath id="1d42229d23"><path d="M 226.046875 0.363281 L 287.890625 0.363281 L 287.890625 230.832031 L 226.046875 230.832031 Z M 226.046875 0.363281 " clip-rule="nonzero"/></clipPath><clipPath id="49d6397859"><path d="M 272.429688 0.363281 L 226.046875 0.363281 L 241.507812 230.828125 L 287.890625 230.828125 Z M 272.429688 0.363281 " clip-rule="nonzero"/></clipPath><clipPath id="f3b7ef81a8"><path d="M 0.046875 0.363281 L 61.890625 0.363281 L 61.890625 230.832031 L 0.046875 230.832031 Z M 0.046875 0.363281 " clip-rule="nonzero"/></clipPath><clipPath id="6a89b7fa73"><path d="M 46.429688 0.363281 L 0.046875 0.363281 L 15.507812 230.828125 L 61.890625 230.828125 Z M 46.429688 0.363281 " clip-rule="nonzero"/></clipPath><clipPath id="1187257613"><rect x="0" width="62" y="0" height="231"/></clipPath><clipPath id="fbb64ef2cb"><rect x="0" width="288" y="0" height="260"/></clipPath></defs><g transform="matrix(1, 0, 0, 1, 43, 58)"><g clip-path="url(#fbb64ef2cb)"><g clip-path="url(#353b3f4379)"><g clip-path="url(#9fa1dcd778)"><g transform="matrix(1, 0, 0, 1, 1, 0)"><g clip-path="url(#23edfcb1a6)"><g clip-path="url(#6f02e29881)"><g clip-path="url(#2a9ea4c196)"><path fill="#2196f3" d="M 0.109375 0.363281 L 61.953125 0.363281 L 61.953125 230.832031 L 0.109375 230.832031 Z M 0.109375 0.363281 " fill-opacity="1" fill-rule="nonzero"/></g></g></g></g></g></g><g clip-path="url(#990f35c5a9)"><g clip-path="url(#f37f8864ba)"><g transform="matrix(1, 0, 0, 1, 55, 0)"><g clip-path="url(#135b49d511)"><g clip-path="url(#7cf79a8a55)"><g clip-path="url(#c9fe4155eb)"><path fill="#2196f3" d="M 0.90625 0.363281 L 62.75 0.363281 L 62.75 185.65625 L 0.90625 185.65625 Z M 0.90625 0.363281 " fill-opacity="1" fill-rule="nonzero"/></g></g></g></g></g></g><g clip-path="url(#94e1b0887a)"><g clip-path="url(#715310a9f7)"><g transform="matrix(1, 0, 0, 1, 113, 0)"><g clip-path="url(#1a50cc8515)"><g clip-path="url(#711f4784f0)"><g clip-path="url(#53d55598d4)"><path fill="#2196f3" d="M 0.957031 0.363281 L 62.800781 0.363281 L 62.800781 258.617188 L 0.957031 258.617188 Z M 0.957031 0.363281 " fill-opacity="1" fill-rule="nonzero"/></g></g></g></g></g></g><g clip-path="url(#21ba38b2d5)"><g clip-path="url(#f247dcf171)"><g transform="matrix(1, 0, 0, 1, 172, 66)"><g clip-path="url(#293c9ffb53)"><g clip-path="url(#cb3c85b39a)"><g clip-path="url(#8ec8552cf3)"><path fill="#2196f3" d="M 0.285156 0.578125 L 62.128906 0.578125 L 62.128906 192.636719 L 0.285156 192.636719 Z M 0.285156 0.578125 " fill-opacity="1" fill-rule="nonzero"/></g></g></g></g></g></g><g clip-path="url(#1d42229d23)"><g clip-path="url(#49d6397859)"><g transform="matrix(1, 0, 0, 1, 226, 0)"><g clip-path="url(#1187257613)"><g clip-path="url(#f3b7ef81a8)"><g clip-path="url(#6a89b7fa73)"><path fill="#2196f3" d="M 0.046875 0.363281 L 61.890625 0.363281 L 61.890625 230.832031 L 0.046875 230.832031 Z M 0.046875 0.363281 " fill-opacity="1" fill-rule="nonzero"/></g></g></g></g></g></g></g></g></svg>